<svg width="15" height="13" viewBox="0 0 15 13" fill="none" xmlns="http://www.w3.org/2000/svg">
<g id="pepicons-pencil:map">
<g id="Group">
<path id="Vector" fill-rule="evenodd" clip-rule="evenodd" d="M7.7266 5.21746C8.14152 5.21746 8.53946 5.08975 8.83286 4.86243C9.12625 4.63512 9.29108 4.32681 9.29108 4.00533C9.29108 3.68386 9.12625 3.37555 8.83286 3.14823C8.53946 2.92092 8.14152 2.79321 7.7266 2.79321C7.31167 2.79321 6.91374 2.92092 6.62034 3.14823C6.32694 3.37555 6.16211 3.68386 6.16211 4.00533C6.16211 4.32681 6.32694 4.63512 6.62034 4.86243C6.91374 5.08975 7.31167 5.21746 7.7266 5.21746ZM7.7266 3.39927C7.93406 3.39927 8.13303 3.46313 8.27973 3.57678C8.42643 3.69044 8.50884 3.8446 8.50884 4.00533C8.50884 4.16607 8.42643 4.32023 8.27973 4.43388C8.13303 4.54754 7.93406 4.61139 7.7266 4.61139C7.51913 4.61139 7.32017 4.54754 7.17347 4.43388C7.02677 4.32023 6.94435 4.16607 6.94435 4.00533C6.94435 3.8446 7.02677 3.69044 7.17347 3.57678C7.32017 3.46313 7.51913 3.39927 7.7266 3.39927Z" fill="#609348"/>
<path id="Vector_2" fill-rule="evenodd" clip-rule="evenodd" d="M4.20508 3.8757C4.20508 5.4957 6.28037 8.24782 7.72517 8.24782C9.17076 8.24782 11.2453 5.4957 11.2453 3.8757C11.2453 2.27813 9.67531 0.975098 7.72517 0.975098C5.77504 0.975098 4.20508 2.27813 4.20508 3.8757ZM10.463 3.8757C10.463 5.20479 8.62632 7.64176 7.72517 7.64176C6.82481 7.64176 4.98732 5.2054 4.98732 3.8757C4.98732 2.60358 6.21936 1.58116 7.72517 1.58116C9.23099 1.58116 10.463 2.60358 10.463 3.8757Z" fill="#609348"/>
<path id="Vector_3" d="M10.4128 5.60552C10.3193 5.57434 10.2451 5.51613 10.2061 5.44326C10.1671 5.3704 10.1663 5.28862 10.2039 5.2153C10.2415 5.14199 10.3145 5.08292 10.4074 5.05065C10.5003 5.01838 10.6058 5.01545 10.7014 5.04249C11.0195 5.14024 11.3062 5.2907 11.5413 5.48334C11.7764 5.67597 11.9543 5.90612 12.0625 6.15764L13.1061 8.58188C13.2237 8.8553 13.2558 9.14647 13.1997 9.43139C13.1436 9.71631 13.0008 9.9868 12.7832 10.2206C12.5656 10.4543 12.2794 10.6447 11.9482 10.7759C11.617 10.9071 11.2502 10.9754 10.8782 10.9752H4.57334C4.20147 10.9752 3.83492 10.9068 3.5039 10.7755C3.17289 10.6442 2.88689 10.4538 2.66946 10.2201C2.45204 9.98634 2.30943 9.71591 2.25337 9.43109C2.19732 9.14627 2.22944 8.8552 2.34707 8.58188L3.3898 6.15764C3.49991 5.90161 3.68219 5.66777 3.92344 5.47311C4.16468 5.27844 4.45883 5.12783 4.78454 5.03219C4.83257 5.01806 4.88371 5.0114 4.93506 5.01259C4.98641 5.01377 5.03695 5.02278 5.0838 5.0391C5.13065 5.05543 5.17289 5.07874 5.20812 5.10771C5.24334 5.13667 5.27086 5.17074 5.28909 5.20794C5.30732 5.24515 5.31592 5.28478 5.31439 5.32456C5.31286 5.36434 5.30123 5.4035 5.28016 5.4398C5.2591 5.4761 5.22901 5.50883 5.19162 5.53612C5.15423 5.56341 5.11026 5.58473 5.06224 5.59885C4.84482 5.66258 4.64846 5.76304 4.48744 5.89293C4.32642 6.02282 4.20478 6.17888 4.13137 6.34976L3.08864 8.774C3.0103 8.95623 2.98898 9.15026 3.02642 9.34012C3.06387 9.52998 3.15901 9.71023 3.304 9.86601C3.449 10.0218 3.6397 10.1487 3.86039 10.2361C4.08108 10.3236 4.32544 10.3692 4.57334 10.3692H10.8798C11.1277 10.3691 11.3721 10.3235 11.5927 10.2359C11.8134 10.1484 12.0041 10.0214 12.149 9.86559C12.2939 9.70974 12.389 9.52944 12.4263 9.33955C12.4636 9.14965 12.4422 8.95561 12.3637 8.7734L11.3218 6.34916C11.2495 6.18155 11.1309 6.0282 10.9742 5.89985C10.8174 5.7715 10.6264 5.67125 10.4144 5.60613" fill="#609348"/>
</g>
</g>
</svg>
