<svg width="100" height="100" viewBox="0 0 100 100" fill="none" xmlns="http://www.w3.org/2000/svg">
<g id="Successmark" clip-path="url(#clip0_108_14602)">
<g id="Sticker">
<path id="Vector" d="M96.4812 49.9979C98.0256 48.1995 99.1078 46.0514 99.6341 43.74C100.16 41.4286 100.115 39.0237 99.5011 36.734C98.8875 34.4442 97.7245 32.3388 96.113 30.6003C94.5015 28.8617 92.4902 27.5426 90.2534 26.7574C90.6917 24.4277 90.5549 22.0262 89.8548 19.7612C89.1548 17.4963 87.9127 15.4364 86.2363 13.7602C84.5599 12.0841 82.4999 10.8422 80.2349 10.1425C77.9699 9.44275 75.5683 9.30623 73.2386 9.74479C72.454 7.50756 71.1352 5.49566 69.3966 3.88376C67.6581 2.27186 65.5524 1.10869 63.2623 0.495228C60.9722 -0.118234 58.567 -0.16344 56.2555 0.363534C53.944 0.890508 51.7961 1.97374 49.9982 3.51917C48.1997 1.9748 46.0517 0.892548 43.7403 0.366302C41.4289 -0.159944 39.024 -0.114292 36.7342 0.499295C34.4445 1.11288 32.339 2.27588 30.6005 3.88738C28.862 5.49889 27.5429 7.51024 26.7577 9.74695C24.4281 9.3091 22.0268 9.44623 19.7622 10.1464C17.4976 10.8467 15.438 12.0888 13.7621 13.7651C12.0862 15.4415 10.8446 17.5014 10.1449 19.7662C9.44529 22.031 9.30878 24.4323 9.74722 26.7618C7.51051 27.547 5.49915 28.8661 3.88765 30.6046C2.27614 32.3431 1.11314 34.4486 0.499551 36.7383C-0.114037 39.0281 -0.159696 41.4329 0.36655 43.7443C0.892796 46.0557 1.97507 48.2038 3.51943 50.0022C1.9746 51.8006 0.891994 53.9488 0.365598 56.2605C-0.160798 58.5721 -0.115099 60.9772 0.498757 63.2672C1.11261 65.5571 2.27606 67.6627 3.88812 69.4011C5.50018 71.1394 7.51216 72.4581 9.74939 73.2427C9.31057 75.5722 9.44693 77.9737 10.1466 80.2386C10.8464 82.5035 12.0883 84.5634 13.7646 86.2396C15.441 87.9157 17.501 89.1573 19.766 89.8568C22.0311 90.5562 24.4325 90.6923 26.7621 90.2532C27.5473 92.4899 28.8663 94.5012 30.6049 96.1127C32.3434 97.7242 34.4488 98.8872 36.7386 99.5008C39.0283 100.114 41.4332 100.16 43.7446 99.6338C46.056 99.1076 48.2041 98.0253 50.0025 96.4809C51.8009 98.0258 53.9491 99.1084 56.2607 99.6348C58.5724 100.161 60.9775 100.115 63.2675 99.5016C65.5574 98.8877 67.663 97.7243 69.4013 96.1122C71.1397 94.5002 72.4584 92.4882 73.243 90.251C75.5726 90.6897 77.9741 90.5532 80.239 89.8535C82.504 89.1538 84.564 87.9119 86.2402 86.2356C87.9165 84.5594 89.1584 82.4994 89.8581 80.2344C90.5579 77.9695 90.6943 75.568 90.2556 73.2383C92.4925 72.4533 94.504 71.1343 96.1156 69.3957C97.7272 67.6571 98.8901 65.5515 99.5035 63.2616C100.117 60.9717 100.162 58.5667 99.6356 56.2553C99.1089 53.9439 98.0262 51.796 96.4812 49.9979Z" fill="#18C07A"/>
<path id="Vector_2" d="M41.0246 69.0842L27.1301 55.1984C26.6028 54.6703 26.3066 53.9544 26.3066 53.2081C26.3066 52.4618 26.6028 51.7459 27.1301 51.2178L28.8182 49.5276C29.3464 49.0002 30.0622 48.7041 30.8085 48.7041C31.5549 48.7041 32.2707 49.0002 32.7989 49.5276L42.899 59.6212L66.6855 34.3438C67.1973 33.8007 67.9037 33.4829 68.6496 33.4602C69.3956 33.4374 70.12 33.7116 70.664 34.2224L72.3976 35.8585C72.9413 36.3704 73.2595 37.0773 73.2822 37.8237C73.305 38.5701 73.0304 39.2951 72.5189 39.8392L45.0724 69.0214C44.814 69.2968 44.5028 69.5174 44.1574 69.6702C43.812 69.8229 43.4394 69.9047 43.0618 69.9105C42.6842 69.9164 42.3092 69.8462 41.9593 69.7043C41.6093 69.5623 41.2914 69.3515 41.0246 69.0842Z" fill="white"/>
</g>
</g>
<defs>
<clipPath id="clip0_108_14602">
<rect width="100" height="100" fill="white"/>
</clipPath>
</defs>
</svg>
