<svg width="14" height="14" viewBox="0 0 14 14" fill="none" xmlns="http://www.w3.org/2000/svg">
<g id="mdi:user">
<path id="Vector" d="M7.00065 1.33325C7.61949 1.33325 8.21298 1.57908 8.65057 2.01667C9.08815 2.45425 9.33398 3.04775 9.33398 3.66659C9.33398 4.28542 9.08815 4.87892 8.65057 5.3165C8.21298 5.75409 7.61949 5.99992 7.00065 5.99992C6.38181 5.99992 5.78832 5.75409 5.35073 5.3165C4.91315 4.87892 4.66732 4.28542 4.66732 3.66659C4.66732 3.04775 4.91315 2.45425 5.35073 2.01667C5.78832 1.57908 6.38181 1.33325 7.00065 1.33325ZM7.00065 7.16658C9.57898 7.16658 11.6673 8.21075 11.6673 9.49992V10.6666H2.33398V9.49992C2.33398 8.21075 4.42232 7.16658 7.00065 7.16658Z" fill="black"/>
</g>
</svg>
